<svg width="68" height="90" viewBox="0 0 68 90" fill="none" xmlns="http://www.w3.org/2000/svg">
<g clip-path="url(#clip0_1_7)">
<path d="M3.73829 34.3303C5.8029 34.3303 7.4766 32.6895 7.4766 30.6653C7.4766 28.6412 5.8029 27.0004 3.73829 27.0004C1.67369 27.0004 0 28.6412 0 30.6653C0 32.6895 1.67369 34.3303 3.73829 34.3303Z" fill="#FFC612"/>
<path d="M28.7115 65.3449L9.2172 78.6607C8.3793 79.2352 7.22501 78.6435 7.22501 77.6381V42.2235C7.22501 40.3335 5.6664 38.8054 3.73866 38.8054C1.81092 38.8054 0.252319 40.3335 0.252319 42.2235V62.9839V86.5766C0.252319 89.3396 3.42226 90.9596 5.73086 89.3797L66.0064 48.2036C67.9927 46.8476 67.9987 43.9699 66.0184 42.6026L66.0124 42.597C64.8113 41.7697 63.2115 41.7637 62.0104 42.5854L28.7115 65.3449Z" fill="#FFC612"/>
<path d="M45.8854 39.96L20.643 57.2048C19.8051 57.7793 18.6508 57.1875 18.6508 56.1825V47.3993C18.6508 46.4284 19.4536 45.6412 20.4438 45.6412H21.7212C23.4673 45.6412 24.8794 44.2568 24.8794 42.5449V42.2235C24.8794 40.3335 23.315 38.7998 21.3872 38.7998H14.7368C13.0434 38.7998 11.6664 40.1497 11.6664 41.8099V69.3776C11.6664 70.3481 12.7797 70.917 13.5883 70.3598L22.5356 64.2476L56.526 41.0227C58.284 39.822 58.2896 37.2659 56.5376 36.0538L36.0064 21.8879L5.08631 0.552978C3.05312 -0.84867 0.252319 0.575955 0.252319 3.01161V4.01689C0.252319 4.9992 0.738649 5.91255 1.55311 6.47554L45.8914 37.0648C46.9106 37.7828 46.905 39.2647 45.8854 39.96Z" fill="#FFC612"/>
</g>
<defs>
<clipPath id="clip0_1_7">
<rect width="67.5" height="90" fill="white"/>
</clipPath>
</defs>
</svg>
